<?xml version="1.0" standalone="no"?>
<!DOCTYPE svg PUBLIC "-//W3C//DTD SVG 20010904//EN"
 "http://www.w3.org/TR/2001/REC-SVG-20010904/DTD/svg10.dtd">
<svg version="1.0" xmlns="http://www.w3.org/2000/svg"
 width="1600.000000pt" height="1600.000000pt" viewBox="0 0 1600.000000 1600.000000"
 preserveAspectRatio="xMidYMid meet">
<metadata>
Created by potrace 1.14, written by Peter Selinger 2001-2017
</metadata>
<g transform="translate(0.000000,1600.000000) scale(0.100000,-0.100000)"
fill="#000000" stroke="none">
<path d="M7585 15993 c-1700 -87 -3339 -721 -4650 -1798 -295 -242 -697 -628
-926 -890 -1212 -1382 -1895 -3045 -2000 -4870 -15 -256 -6 -869 15 -1105 76
-826 245 -1545 532 -2271 342 -865 818 -1639 1453 -2364 134 -153 530 -549
686 -686 1259 -1106 2786 -1784 4420 -1963 330 -36 435 -41 895 -41 485 1 617
8 995 56 1601 200 3061 862 4300 1948 153 134 549 530 686 686 1211 1378 1895
3045 2000 4870 15 256 6 869 -15 1105 -76 826 -245 1545 -532 2271 -342 865
-818 1639 -1453 2364 -134 153 -530 549 -686 686 -1371 1204 -3033 1890 -4845
1999 -148 9 -723 11 -875 3z m815 -2648 c0 -12 13 -15 60 -15 47 0 60 -3 60
-15 0 -11 12 -15 44 -15 24 0 46 -5 48 -11 2 -6 26 -13 53 -16 28 -3 54 -12
58 -19 4 -8 21 -14 37 -14 15 0 30 -5 32 -11 2 -5 22 -13 46 -16 23 -3 42 -9
42 -14 0 -5 18 -12 40 -15 22 -4 40 -10 40 -15 0 -5 14 -9 30 -9 20 0 30 -5
30 -15 0 -10 10 -15 30 -15 18 0 33 -6 36 -15 4 -9 19 -15 35 -15 19 0 29 -5
29 -15 0 -9 9 -15 24 -15 13 0 26 -7 30 -15 3 -8 17 -15 31 -15 16 0 25 -6 25
-15 0 -10 10 -15 30 -15 20 0 30 -5 30 -15 0 -10 10 -15 30 -15 20 0 30 -5 30
-15 0 -8 9 -15 20 -15 11 0 20 -4 20 -10 0 -5 11 -12 24 -16 14 -3 27 -12 30
-20 3 -8 12 -14 21 -14 8 0 15 -4 15 -10 0 -5 11 -12 25 -16 14 -3 25 -10 25
-15 0 -5 7 -9 15 -9 9 0 18 -7 21 -15 4 -8 17 -15 30 -15 15 0 24 -6 24 -15 0
-8 7 -15 15 -15 8 0 15 -7 15 -15 0 -10 10 -15 30 -15 20 0 30 -5 30 -15 0 -8
7 -15 15 -15 8 0 15 -7 15 -15 0 -8 7 -15 15 -15 8 0 15 -7 15 -15 0 -8 7 -15
15 -15 8 0 15 -4 15 -9 0 -5 14 -12 30 -16 17 -4 30 -13 30 -21 0 -8 7 -14 15
-14 8 0 15 -7 15 -15 0 -8 7 -15 15 -15 8 0 15 -7 15 -15 0 -8 7 -15 15 -15 8
0 15 -4 15 -10 0 -5 7 -10 15 -10 8 0 15 -7 15 -15 0 -8 7 -15 15 -15 8 0 15
-7 15 -15 0 -8 7 -15 15 -15 8 0 15 -7 15 -15 0 -8 7 -15 15 -15 8 0 15 -7 15
-15 0 -8 7 -15 15 -15 8 0 15 -7 15 -15 0 -8 7 -15 15 -15 8 0 15 -7 15 -15 0
-8 7 -15 15 -15 8 0 15 -7 15 -15 0 -8 7 -15 15 -15 8 0 15 -7 15 -15 0 -8 4
-15 10 -15 15 0 50 -33 50 -47 0 -7 5 -13 11 -13 14 0 39 -25 39 -39 0 -6 6
-11 14 -11 8 0 17 -13 21 -30 4 -16 13 -30 21 -30 8 0 14 -7 14 -15 0 -8 7
-15 15 -15 8 0 15 -7 15 -15 0 -8 7 -15 15 -15 8 0 15 -5 15 -11 0 -6 14 -24
30 -41 17 -16 30 -34 30 -39 0 -6 11 -20 25 -33 14 -13 25 -27 25 -32 0 -5 9
-17 20 -27 11 -9 20 -24 20 -32 0 -8 5 -15 10 -15 6 0 10 -7 10 -15 0 -8 7
-15 15 -15 8 0 15 -7 15 -15 0 -8 6 -15 14 -15 8 0 17 -12 21 -27 3 -15 17
-37 30 -48 12 -12 26 -32 30 -43 3 -12 11 -22 16 -22 5 0 9 -7 9 -15 0 -8 7
-15 15 -15 10 0 15 -10 15 -30 0 -20 5 -30 15 -30 8 0 15 -7 15 -15 0 -8 7
-15 15 -15 9 0 15 -9 15 -25 0 -14 6 -28 14 -31 8 -3 17 -16 20 -30 4 -13 11
-24 16 -24 6 0 10 -7 10 -15 0 -9 7 -18 15 -21 8 -4 15 -17 15 -30 0 -14 6
-24 14 -24 8 0 17 -13 21 -30 4 -16 11 -30 16 -30 5 0 9 -7 9 -15 0 -8 7 -15
15 -15 10 0 15 -10 15 -30 0 -20 5 -30 15 -30 9 0 15 -9 15 -25 0 -16 6 -25
15 -25 8 0 15 -9 15 -19 0 -11 7 -26 15 -35 8 -8 15 -20 15 -26 0 -6 7 -13 15
-16 8 -4 15 -17 15 -30 0 -15 6 -24 15 -24 10 0 15 -10 15 -30 0 -20 5 -30 15
-30 10 0 15 -10 15 -30 0 -20 5 -30 15 -30 9 0 15 -9 15 -25 0 -16 6 -25 15
-25 10 0 15 -10 15 -30 0 -20 5 -30 15 -30 10 0 15 -10 15 -30 0 -20 5 -30 15
-30 10 0 15 -10 15 -30 0 -20 5 -30 15 -30 10 0 15 -10 15 -30 0 -20 5 -30 15
-30 9 0 15 -9 15 -25 0 -14 7 -28 15 -31 8 -4 15 -17 15 -30 0 -15 6 -24 15
-24 10 0 15 -10 15 -30 0 -20 5 -30 15 -30 10 0 15 -10 15 -30 0 -20 5 -30 15
-30 10 0 15 -10 15 -30 0 -20 5 -30 15 -30 11 0 15 -11 15 -40 0 -29 4 -40 15
-40 10 0 15 -10 15 -30 0 -20 5 -30 15 -30 10 0 15 -10 15 -30 0 -20 5 -30 15
-30 10 0 15 -10 15 -30 0 -20 5 -30 15 -30 11 0 15 -12 15 -45 0 -33 4 -45 15
-45 10 0 15 -10 15 -30 0 -20 5 -30 15 -30 11 0 15 -11 15 -40 0 -29 4 -40 15
-40 10 0 15 -10 15 -30 0 -20 5 -30 15 -30 11 0 15 -12 15 -45 0 -33 4 -45 15
-45 10 0 15 -10 15 -30 0 -20 5 -30 15 -30 11 0 15 -11 15 -40 0 -29 4 -40 15
-40 11 0 15 -12 15 -45 0 -33 4 -45 15 -45 9 0 15 -10 15 -26 0 -14 7 -32 15
-40 8 -9 15 -29 15 -45 0 -17 7 -37 15 -45 8 -9 15 -31 15 -50 0 -24 5 -34 15
-34 11 0 15 -11 15 -40 0 -29 4 -40 15 -40 11 0 15 -11 15 -41 0 -23 7 -47 15
-55 8 -9 15 -29 15 -45 0 -17 7 -37 15 -45 8 -9 15 -29 15 -45 0 -17 7 -37 15
-45 9 -9 15 -34 15 -59 0 -24 5 -45 11 -47 5 -2 13 -22 16 -46 3 -23 9 -42 13
-42 5 0 11 -24 15 -52 4 -29 12 -56 17 -59 5 -3 12 -25 15 -48 3 -22 9 -41 13
-41 5 0 11 -27 15 -60 4 -33 11 -60 15 -60 5 0 12 -25 15 -55 4 -30 11 -55 15
-55 4 0 11 -27 15 -60 4 -33 11 -60 15 -60 5 0 12 -27 16 -60 4 -33 10 -60 14
-60 4 0 10 -30 13 -67 4 -37 10 -69 15 -72 5 -3 12 -35 16 -70 3 -36 10 -67
15 -70 4 -3 11 -37 15 -76 4 -38 11 -72 15 -75 4 -3 11 -34 15 -69 3 -36 10
-67 15 -70 4 -3 11 -37 14 -75 4 -38 10 -72 15 -75 5 -3 12 -44 15 -90 4 -47
11 -87 15 -90 5 -3 12 -49 16 -101 4 -52 11 -97 15 -100 4 -3 11 -48 15 -100
4 -52 11 -97 15 -100 5 -3 10 -54 13 -113 3 -60 9 -112 15 -115 6 -4 12 -61
15 -130 2 -71 9 -126 15 -130 6 -4 12 -70 15 -161 3 -84 10 -156 15 -160 6 -3
13 -101 16 -220 3 -118 10 -217 15 -220 5 -3 12 -189 16 -436 4 -249 11 -431
17 -433 5 -2 9 -76 9 -168 l0 -164 -964 0 -963 0 -7 262 c-5 145 -11 265 -16
268 -4 3 -9 166 -12 363 -2 247 -7 360 -15 365 -7 5 -12 86 -15 245 -2 158 -7
240 -14 245 -8 5 -13 76 -16 200 -3 121 -9 196 -15 200 -7 4 -12 67 -14 160
-3 97 -8 155 -15 160 -7 4 -13 58 -16 135 -3 71 -10 132 -15 135 -6 4 -13 63
-15 132 -4 79 -9 125 -17 128 -7 2 -11 35 -11 92 0 63 -4 93 -14 103 -9 9 -15
45 -17 111 -3 58 -9 100 -15 104 -7 4 -13 45 -15 101 -3 64 -8 96 -16 99 -9 2
-13 27 -13 77 0 52 -4 78 -15 89 -10 10 -15 35 -15 75 0 40 -5 65 -15 75 -11
10 -15 36 -15 85 0 56 -3 71 -15 71 -12 0 -15 14 -15 70 0 54 -4 72 -15 76
-11 5 -15 23 -15 70 0 48 -4 66 -15 70 -11 5 -15 22 -15 64 0 39 -5 64 -15 74
-10 9 -15 34 -15 70 0 43 -3 56 -15 56 -12 0 -15 14 -15 70 0 56 -3 70 -15 70
-12 0 -15 13 -15 60 0 47 -3 60 -15 60 -12 0 -15 13 -15 60 0 47 -3 60 -15 60
-12 0 -15 13 -15 55 0 42 -3 55 -15 55 -12 0 -15 13 -15 60 0 47 -3 60 -15 60
-12 0 -15 13 -15 55 0 42 -3 55 -15 55 -11 0 -15 12 -15 45 0 31 -5 47 -15 51
-11 5 -15 21 -15 60 0 41 -4 54 -15 54 -11 0 -15 12 -15 45 0 33 -4 45 -15 45
-11 0 -15 11 -15 40 0 29 -4 40 -15 40 -11 0 -15 12 -15 45 0 33 -4 45 -15 45
-11 0 -15 12 -15 45 0 33 -4 45 -15 45 -11 0 -15 12 -15 45 0 33 -4 45 -15 45
-11 0 -15 11 -15 40 0 29 -4 40 -15 40 -11 0 -15 12 -15 45 0 33 -4 45 -15 45
-9 0 -15 10 -15 26 0 14 -7 32 -15 40 -8 9 -15 28 -15 44 0 16 -7 30 -15 34
-8 3 -15 17 -15 31 0 15 -7 33 -15 41 -8 9 -15 29 -15 45 0 19 -5 29 -15 29
-10 0 -15 10 -15 30 0 20 -5 30 -15 30 -10 0 -15 10 -15 30 0 20 -5 30 -15 30
-10 0 -15 10 -15 30 0 17 -4 30 -9 30 -5 0 -13 10 -17 23 -4 12 -11 25 -16 28
-5 3 -12 25 -15 48 -4 25 -11 41 -19 41 -8 0 -14 7 -14 15 0 8 -4 15 -9 15 -5
0 -12 14 -16 30 -4 17 -10 30 -15 30 -5 0 -11 14 -15 30 -4 17 -11 30 -16 30
-5 0 -11 11 -15 25 -3 14 -10 25 -14 25 -5 0 -11 14 -15 30 -4 17 -10 30 -15
30 -5 0 -11 14 -15 30 -4 17 -11 30 -16 30 -5 0 -9 7 -9 15 0 8 -6 15 -14 15
-8 0 -17 14 -21 30 -4 17 -10 30 -15 30 -4 0 -11 11 -14 25 -4 14 -11 25 -16
25 -6 0 -10 7 -10 15 0 9 -6 18 -14 21 -8 3 -17 16 -20 30 -4 13 -11 24 -16
24 -6 0 -10 7 -10 15 0 8 -6 15 -14 15 -8 0 -17 14 -21 30 -4 17 -11 30 -16
30 -5 0 -9 7 -9 15 0 8 -6 15 -14 15 -8 0 -17 11 -20 25 -4 14 -11 25 -16 25
-6 0 -10 6 -10 13 0 7 -13 24 -29 38 -15 14 -31 35 -35 47 -4 12 -12 22 -17
22 -5 0 -9 7 -9 15 0 8 -7 15 -15 15 -8 0 -15 7 -15 15 0 8 -7 15 -15 15 -8 0
-15 7 -15 15 0 8 -7 15 -15 15 -9 0 -15 9 -15 25 0 14 -7 28 -15 31 -8 4 -15
12 -15 20 0 8 -4 14 -10 14 -5 0 -19 9 -30 20 -11 11 -20 25 -20 30 0 6 -7 10
-15 10 -8 0 -15 7 -15 15 0 8 -5 15 -10 15 -6 0 -21 11 -34 25 -13 14 -28 25
-35 25 -6 0 -11 7 -11 15 0 8 -7 15 -15 15 -8 0 -15 7 -15 15 0 8 -7 15 -15
15 -8 0 -15 7 -15 15 0 8 -9 15 -20 15 -11 0 -20 4 -20 10 0 5 -11 12 -25 16
-14 3 -25 12 -25 20 0 8 -7 14 -15 14 -8 0 -15 7 -15 15 0 10 -10 15 -30 15
-20 0 -30 5 -30 15 0 8 -7 15 -15 15 -8 0 -15 4 -15 9 0 5 -13 12 -30 16 -16
4 -30 10 -30 15 0 5 -13 11 -30 15 -16 4 -30 10 -30 14 0 5 -19 11 -41 14 -23
3 -45 10 -48 15 -3 5 -24 12 -45 15 -22 4 -42 10 -45 16 -3 5 -44 10 -90 13
-55 2 -86 8 -89 16 -6 19 -122 16 -122 -3 0 -12 -16 -15 -84 -15 -65 0 -85 -3
-90 -15 -4 -10 -20 -15 -51 -15 -25 0 -45 -4 -45 -9 0 -5 -13 -12 -30 -16 -16
-4 -30 -11 -30 -16 0 -5 -13 -9 -29 -9 -16 0 -36 -7 -45 -15 -8 -8 -22 -15
-30 -15 -9 0 -16 -7 -16 -15 0 -9 -9 -15 -25 -15 -14 0 -28 -6 -31 -14 -3 -8
-16 -17 -30 -20 -13 -4 -24 -11 -24 -16 0 -6 -9 -10 -20 -10 -11 0 -20 -7 -20
-15 0 -8 -7 -15 -15 -15 -8 0 -15 -7 -15 -15 0 -9 -9 -15 -25 -15 -16 0 -25
-6 -25 -15 0 -8 -9 -15 -20 -15 -11 0 -20 -7 -20 -15 0 -8 -7 -15 -15 -15 -8
0 -15 -7 -15 -15 0 -8 -5 -15 -11 -15 -14 0 -189 -175 -189 -189 0 -6 -6 -11
-14 -11 -8 0 -17 -13 -21 -30 -4 -16 -13 -30 -21 -30 -8 0 -14 -5 -14 -11 0
-6 -18 -29 -40 -50 -22 -22 -40 -43 -40 -48 0 -5 -13 -23 -30 -39 -16 -17 -30
-35 -30 -42 0 -6 -7 -13 -15 -16 -8 -4 -15 -17 -15 -30 0 -15 -6 -24 -15 -24
-8 0 -15 -7 -15 -15 0 -8 -6 -15 -14 -15 -8 0 -17 -13 -21 -30 -4 -16 -11 -30
-16 -30 -5 0 -9 -7 -9 -15 0 -8 -7 -15 -15 -15 -9 0 -15 -9 -15 -25 0 -16 -6
-25 -15 -25 -8 0 -15 -7 -15 -15 0 -9 -7 -18 -15 -21 -8 -4 -15 -17 -15 -30 0
-15 -6 -24 -15 -24 -8 0 -15 -9 -15 -19 0 -11 -7 -26 -15 -35 -8 -8 -15 -19
-15 -25 0 -6 -7 -11 -15 -11 -10 0 -15 -10 -15 -30 0 -20 -5 -30 -15 -30 -10
0 -15 -10 -15 -30 0 -20 -5 -30 -15 -30 -9 0 -15 -9 -15 -25 0 -16 -6 -25 -15
-25 -10 0 -15 -10 -15 -30 0 -20 -5 -30 -15 -30 -10 0 -15 -10 -15 -30 0 -20
-5 -30 -15 -30 -10 0 -15 -10 -15 -30 0 -20 -5 -30 -15 -30 -10 0 -15 -10 -15
-30 0 -20 -5 -30 -15 -30 -10 0 -15 -10 -15 -30 0 -20 -5 -30 -15 -30 -11 0
-15 -11 -15 -40 0 -29 -4 -40 -15 -40 -10 0 -15 -10 -15 -30 0 -20 -5 -30 -15
-30 -10 0 -15 -10 -15 -30 0 -20 -5 -30 -15 -30 -11 0 -15 -11 -15 -40 0 -29
-4 -40 -15 -40 -10 0 -15 -11 -15 -35 0 -24 -5 -35 -15 -35 -11 0 -15 -11 -15
-40 0 -29 -4 -40 -15 -40 -11 0 -15 -12 -15 -45 0 -33 -4 -45 -15 -45 -11 0
-15 -11 -15 -39 0 -25 -5 -41 -15 -45 -10 -3 -15 -19 -15 -46 0 -29 -4 -40
-15 -40 -11 0 -15 -12 -15 -45 0 -33 -4 -45 -15 -45 -11 0 -15 -12 -15 -45 0
-33 -4 -45 -15 -45 -11 0 -15 -12 -15 -45 0 -33 -4 -45 -15 -45 -12 0 -15 -13
-15 -55 0 -42 -3 -55 -15 -55 -11 0 -15 -11 -15 -41 0 -23 -7 -47 -15 -55 -9
-9 -15 -34 -15 -59 0 -29 -5 -45 -15 -49 -11 -4 -15 -21 -15 -61 0 -42 -3 -55
-15 -55 -11 0 -15 -13 -15 -54 0 -39 -4 -55 -15 -60 -11 -4 -15 -21 -15 -61 0
-42 -3 -55 -15 -55 -12 0 -15 -13 -15 -60 0 -47 -3 -60 -15 -60 -12 0 -15 -13
-15 -56 0 -36 -5 -61 -15 -70 -9 -9 -15 -34 -15 -60 0 -27 -6 -52 -15 -60 -10
-10 -15 -35 -15 -74 0 -36 -5 -60 -12 -62 -6 -2 -13 -32 -16 -69 -3 -35 -9
-67 -15 -71 -6 -3 -13 -35 -15 -70 -3 -35 -9 -66 -15 -70 -6 -4 -13 -37 -15
-75 -3 -37 -9 -71 -15 -75 -6 -4 -13 -37 -15 -75 -3 -37 -10 -71 -16 -75 -6
-4 -12 -44 -15 -89 -2 -53 -8 -88 -17 -97 -9 -9 -14 -38 -14 -87 0 -41 -5 -75
-10 -77 -6 -2 -13 -41 -17 -88 -3 -47 -10 -88 -14 -91 -5 -3 -12 -48 -15 -100
-4 -52 -11 -97 -15 -100 -5 -3 -12 -54 -15 -115 -4 -60 -11 -112 -15 -115 -5
-3 -12 -54 -15 -115 -4 -60 -11 -111 -15 -114 -4 -3 -11 -64 -15 -135 -4 -72
-10 -132 -15 -135 -4 -3 -11 -75 -15 -160 -4 -85 -11 -157 -15 -160 -5 -3 -11
-100 -15 -215 -4 -116 -11 -213 -16 -216 -4 -3 -11 -159 -15 -347 -3 -188 -10
-342 -15 -342 -4 0 -8 -205 -8 -455 0 -297 3 -455 10 -455 6 0 10 -20 10 -45
l0 -45 -922 2 -923 3 -3 102 c-1 58 -7 103 -12 103 -13 0 -13 407 0 412 6 2
12 155 16 388 4 241 11 387 17 392 6 3 12 82 15 190 3 110 9 186 15 190 6 3
12 65 15 145 3 76 9 141 14 144 6 4 13 58 16 120 2 63 9 117 15 121 6 3 12 55
15 114 3 72 9 113 18 122 10 9 14 40 14 98 0 63 4 89 15 100 11 11 15 37 15
89 0 48 4 75 12 77 7 3 14 32 16 74 3 38 9 72 16 76 6 4 12 42 14 85 3 43 9
81 15 85 6 3 13 35 15 70 3 35 9 66 15 70 6 3 12 32 15 65 3 32 9 61 15 65 6
3 13 35 15 70 3 35 9 66 15 69 5 4 12 31 15 60 3 30 9 57 15 60 5 4 12 31 15
60 3 29 11 59 18 67 8 7 14 33 14 57 0 24 5 45 11 47 6 2 14 28 17 58 3 30 11
60 18 68 8 7 14 33 14 57 0 24 5 45 11 47 6 2 13 26 16 53 3 28 10 53 15 56 5
3 11 23 15 45 3 21 10 42 15 45 5 3 11 23 15 45 3 21 10 42 15 45 5 3 11 29
15 57 3 29 9 52 14 52 4 0 10 19 14 43 4 23 12 45 17 48 5 3 11 23 15 45 3 21
10 42 15 45 5 3 12 25 15 48 3 22 9 41 13 41 4 0 11 20 14 45 4 25 11 45 15
45 5 0 11 18 15 40 3 22 10 40 15 40 5 0 11 19 14 41 3 23 11 45 17 49 6 4 14
26 17 49 3 22 9 41 14 41 4 0 10 14 14 30 4 17 10 30 15 30 4 0 10 18 14 40 3
22 10 40 15 40 5 0 11 19 14 41 3 23 10 45 15 48 6 3 14 19 17 34 4 15 11 27
16 27 5 0 9 13 9 29 0 16 7 36 15 45 8 8 15 26 15 41 0 14 7 28 15 31 8 4 15
18 15 34 0 16 7 35 15 44 8 8 15 26 15 40 0 16 6 26 15 26 10 0 15 10 15 29 0
16 7 36 15 45 8 8 15 26 15 40 0 16 6 26 15 26 10 0 15 10 15 30 0 20 5 30 15
30 10 0 15 10 15 30 0 20 5 30 15 30 11 0 15 12 15 45 0 33 4 45 15 45 9 0 15
9 15 25 0 16 6 25 15 25 10 0 15 11 15 35 0 24 5 35 15 35 9 0 15 9 15 25 0
16 6 25 15 25 10 0 15 10 15 30 0 20 5 30 15 30 10 0 15 10 15 30 0 20 5 30
15 30 10 0 15 10 15 30 0 20 5 30 15 30 10 0 15 10 15 30 0 20 5 30 15 30 10
0 15 10 15 30 0 20 5 30 15 30 9 0 15 9 15 24 0 13 7 26 15 30 8 3 15 17 15
31 0 16 6 25 15 25 10 0 15 10 15 30 0 20 5 30 15 30 10 0 15 10 15 30 0 20 5
30 15 30 9 0 15 9 15 25 0 16 6 25 15 25 10 0 15 10 15 30 0 20 5 30 15 30 10
0 15 10 15 30 0 20 5 30 15 30 8 0 15 5 15 11 0 6 7 17 15 25 8 9 15 24 15 35
0 10 7 19 15 19 9 0 15 9 15 25 0 16 6 25 15 25 8 0 15 9 15 20 0 11 4 20 10
20 5 0 12 11 16 25 3 14 12 25 20 25 9 0 14 11 14 30 0 20 5 30 15 30 8 0 15
7 15 15 0 8 7 15 15 15 10 0 15 10 15 30 0 20 5 30 15 30 8 0 15 7 15 15 0 8
4 15 10 15 5 0 12 11 16 24 3 14 12 27 20 30 8 3 14 12 14 21 0 8 7 15 15 15
9 0 15 9 15 25 0 16 6 25 15 25 8 0 15 7 15 15 0 8 7 15 15 15 8 0 15 7 15 15
0 8 4 15 9 15 5 0 12 14 16 30 4 17 13 30 21 30 8 0 14 7 14 15 0 8 7 15 15
15 8 0 15 7 15 15 0 8 4 15 10 15 5 0 12 11 16 25 3 14 12 25 20 25 8 0 14 5
14 10 0 6 18 27 39 48 22 21 43 50 46 65 4 15 13 27 21 27 8 0 14 7 14 15 0 8
7 15 15 15 8 0 15 7 15 15 0 8 7 15 15 15 8 0 15 7 15 15 0 8 7 15 15 15 8 0
15 7 15 15 0 8 4 15 10 15 13 0 50 32 50 43 0 12 56 67 69 67 6 0 11 7 11 15
0 8 7 15 15 15 8 0 15 7 15 15 0 8 7 15 15 15 8 0 15 7 15 15 0 8 7 15 15 15
8 0 15 7 15 15 0 8 5 15 10 15 6 0 21 11 34 25 13 14 28 25 35 25 6 0 11 7 11
15 0 8 6 15 13 15 7 0 20 9 30 20 9 11 24 20 32 20 8 0 15 5 15 10 0 6 7 10
15 10 8 0 15 7 15 15 0 8 7 15 15 15 8 0 15 7 15 15 0 8 7 15 15 15 9 0 18 7
21 15 4 8 17 15 30 15 15 0 24 6 24 15 0 8 7 15 15 15 8 0 15 7 15 15 0 8 7
15 15 15 8 0 15 7 15 15 0 10 10 15 30 15 20 0 30 5 30 15 0 8 7 15 15 15 8 0
15 4 15 9 0 5 14 12 30 16 17 4 30 11 30 16 0 5 7 9 15 9 8 0 15 7 15 15 0 9
9 15 25 15 14 0 28 6 31 14 3 8 19 18 35 21 16 4 29 10 29 15 0 5 14 11 30 15
17 4 30 10 30 15 0 4 11 11 25 14 14 4 25 11 25 16 0 6 9 10 20 10 11 0 20 7
20 15 0 10 10 15 30 15 20 0 30 5 30 15 0 11 11 15 39 15 25 0 41 5 45 15 3 9
18 15 36 15 20 0 30 5 30 15 0 10 10 15 30 15 17 0 30 4 30 10 0 5 18 13 40
16 22 4 40 10 40 15 0 5 14 9 30 9 18 0 33 6 36 15 4 10 20 15 45 15 26 0 42
5 45 15 4 10 20 15 49 15 25 0 50 6 59 15 8 8 32 15 56 15 27 0 43 5 46 15 5
11 21 15 60 15 39 0 56 4 60 15 5 13 58 15 390 15 335 0 384 -2 384 -15z"/>
</g>
</svg>
